<?xml version="1.0" standalone="no"?>
<!DOCTYPE svg PUBLIC "-//W3C//DTD SVG 20010904//EN"
 "http://www.w3.org/TR/2001/REC-SVG-20010904/DTD/svg10.dtd">
<svg version="1.0" xmlns="http://www.w3.org/2000/svg"
 width="7730.000000pt" height="7730.000000pt" viewBox="0 0 7730.000000 7730.000000"
 preserveAspectRatio="xMidYMid meet">

<g transform="translate(0.000000,7730.000000) scale(0.100000,-0.100000)"
fill="#000000" stroke="none">
<path d="M25494 47230 c-485 -47 -898 -291 -1056 -626 -32 -66 -33 -74 -32
-189 0 -133 21 -235 81 -409 61 -175 156 -390 192 -436 20 -25 20 -25 49 -7
40 23 75 22 98 -4 10 -12 61 -55 112 -96 99 -79 145 -134 162 -192 6 -20 15
-93 20 -163 5 -70 16 -150 24 -178 40 -133 142 -263 281 -355 221 -147 575
-227 760 -171 194 58 325 203 381 421 32 126 18 399 -22 440 -21 21 -112 30
-299 30 -194 0 -261 -12 -431 -76 -130 -49 -188 -56 -278 -35 -239 56 -470
297 -507 529 -32 206 18 343 135 367 28 5 89 17 135 26 107 20 204 52 318 103
135 61 198 75 343 75 252 0 404 -75 494 -243 l34 -64 25 44 c43 72 66 131 88
225 28 120 23 332 -11 439 -80 253 -246 415 -502 489 -168 48 -421 72 -594 56z
m826 -2116 c87 -46 76 -58 -65 -65 -80 -4 -142 -14 -185 -28 -82 -26 -110 -27
-110 -2 0 22 78 97 123 117 54 24 171 14 237 -22z"/>
<path d="M22790 40047 c-131 -247 -321 -506 -509 -694 -120 -121 -239 -219
-506 -420 -110 -82 -237 -180 -282 -218 l-82 -68 5 -91 c46 -813 66 -1261 71
-1538 l6 -337 30 -11 c17 -5 73 -15 125 -21 111 -13 240 -4 580 41 271 36 517
52 674 43 l117 -6 62 134 c35 74 124 256 199 404 210 417 286 602 340 830 40
169 54 305 47 465 -19 439 -175 845 -476 1237 -88 116 -316 373 -329 373 -4 0
-36 -56 -72 -123z"/>
<path d="M34630 39910 c-910 -26 -1956 -55 -2325 -64 -368 -10 -1773 -48
-3120 -86 -2395 -67 -2452 -69 -2508 -90 -36 -14 -75 -39 -105 -68 -89 -87
-87 -79 -158 -717 -113 -1030 -393 -3592 -434 -3980 -22 -209 -43 -390 -46
-403 -4 -21 -9 -23 -37 -17 -98 21 -256 107 -568 309 l-190 124 -482 7 c-265
3 -675 10 -912 15 -420 8 -431 8 -478 -12 -89 -39 -140 -120 -140 -228 0 -130
64 -256 164 -324 29 -19 227 -103 468 -197 359 -140 417 -166 408 -179 -10
-13 -10 -13 4 -2 14 11 134 -33 787 -289 441 -173 768 -307 765 -312 -3 -6 -1
-7 6 -3 13 8 302 -101 313 -118 4 -6 8 -8 8 -4 0 8 93 -25 170 -60 102 -46
101 -46 860 -7 58 3 200 9 315 15 989 47 2316 111 2490 120 257 14 5042 240
5080 240 28 0 26 2 -24 30 -80 44 -116 75 -135 113 -46 99 2 224 142 365 174
176 414 328 587 372 95 24 283 50 364 50 32 0 92 3 134 6 l75 7 11 61 c6 34
54 311 106 616 106 625 424 2477 606 3535 117 680 121 703 114 800 -8 122 -32
172 -118 251 -121 108 -296 175 -456 173 -47 -1 -831 -23 -1741 -49z"/>
<path d="M52895 39590 l-90 -6 105 -2 c474 -9 1058 -86 1525 -203 1292 -323
2447 -1020 3259 -1965 320 -372 552 -724 766 -1159 209 -424 340 -805 429
-1246 75 -364 96 -595 96 -1024 0 -383 -12 -533 -65 -850 -363 -2163 -2105
-3941 -4455 -4545 -226 -58 -616 -134 -799 -155 -32 -4 -68 -8 -80 -10 -21 -3
-84 -10 -181 -20 -118 -12 -350 -25 -475 -26 -134 -2 -134 -2 -60 -11 105 -13
707 -2 925 17 680 60 1296 202 1900 438 1470 575 2632 1615 3266 2921 89 185
223 516 277 686 106 334 193 759 217 1055 4 44 9 91 12 105 12 66 11 653 -2
805 -70 795 -293 1507 -683 2180 -961 1661 -2803 2791 -4872 2990 -339 32
-759 43 -1015 25z"/>
<path d="M18215 34670 c-3 -6 1 -7 9 -4 18 7 21 14 7 14 -6 0 -13 -4 -16 -10z"/>
<path d="M18267 34626 c-4 -9 -3 -15 2 -11 6 3 14 -3 20 -12 9 -16 10 -16 8 4
0 12 -4 20 -8 17 -4 -2 -9 1 -11 8 -3 7 -7 5 -11 -6z"/>
<path d="M18370 34572 c0 -12 19 -26 26 -19 2 2 -2 10 -11 17 -9 8 -15 8 -15
2z"/>
<path d="M18364 34543 c10 -13 23 -20 29 -16 7 4 6 8 -3 11 -8 3 -22 10 -30
16 -8 6 -7 1 4 -11z"/>
<path d="M18345 34530 c10 -11 20 -20 23 -20 3 0 -3 9 -13 20 -10 11 -20 20
-23 20 -3 0 3 -9 13 -20z"/>
<path d="M18400 34480 c14 -10 27 -17 29 -14 7 7 -17 28 -36 30 -14 2 -12 -2
7 -16z"/>
<path d="M18465 34471 c-3 -5 -2 -12 3 -15 5 -3 9 1 9 9 0 17 -3 19 -12 6z"/>
<path d="M18536 34405 c-15 -11 -23 -12 -33 -3 -11 8 -12 7 -7 -6 6 -15 18
-20 38 -17 5 1 6 -4 3 -12 -3 -7 0 -14 7 -14 6 0 12 8 12 18 0 10 -4 15 -8 13
-12 -8 -9 11 4 24 16 16 7 15 -16 -3z"/>
<path d="M18640 34271 c0 -5 14 -11 30 -15 22 -4 30 -11 28 -23 -2 -14 3 -17
21 -15 17 3 21 0 15 -10 -6 -10 -5 -11 8 -1 8 7 18 9 22 5 4 -4 6 0 4 8 -2 10
4 14 17 12 20 -2 20 -2 1 12 -22 18 -54 16 -67 -5 -7 -10 -8 -6 -3 14 6 26 5
27 -35 27 -23 0 -41 -4 -41 -9z m118 -38 c-6 -7 -12 -13 -13 -13 -2 0 -5 6 -8
13 -3 7 3 13 14 13 13 0 15 -3 7 -13z"/>
<path d="M18780 34202 c0 -6 -8 -9 -17 -6 -14 5 -15 4 -4 -4 8 -6 21 -8 29 -4
9 3 13 1 9 -5 -5 -8 6 -10 35 -7 39 4 41 3 25 -10 -11 -8 -25 -12 -32 -10 -7
3 -16 1 -20 -5 -4 -7 0 -8 11 -4 13 5 15 3 9 -7 -6 -10 -4 -11 6 -4 13 8 17
10 37 13 4 0 8 10 9 21 2 17 -4 20 -36 20 -20 0 -42 5 -49 12 -9 9 -12 9 -12
0z"/>
<path d="M18978 34193 c12 -2 32 -2 45 0 12 2 2 4 -23 4 -25 0 -35 -2 -22 -4z"/>
<path d="M18871 34114 c-1 -22 16 -34 49 -34 10 0 20 -6 23 -14 8 -19 59 -16
65 4 5 13 3 13 -11 1 -14 -11 -17 -11 -18 0 -1 8 -1 18 0 23 1 5 -5 4 -13 -3
-11 -9 -20 -10 -36 -1 -11 6 -25 8 -30 5 -6 -4 -14 4 -19 17 -9 22 -10 22 -10
2z"/>
<path d="M19200 34110 c0 -5 18 -10 40 -10 22 0 40 5 40 10 0 6 -18 10 -40 10
-22 0 -40 -4 -40 -10z"/>
<path d="M19378 34113 c12 -2 32 -2 45 0 12 2 2 4 -23 4 -25 0 -35 -2 -22 -4z"/>
<path d="M19010 34092 c19 -9 19 -34 1 -48 -11 -9 -12 -12 -1 -19 9 -5 11 -4
6 3 -4 7 -1 12 7 12 9 0 14 11 15 30 1 25 -3 30 -21 29 -16 0 -18 -2 -7 -7z"/>
<path d="M19778 34033 c12 -2 32 -2 45 0 12 2 2 4 -23 4 -25 0 -35 -2 -22 -4z"/>
<path d="M19051 34007 c-9 -12 -6 -14 21 -11 36 5 58 20 28 20 -11 0 -20 -5
-20 -11 0 -5 -4 -4 -9 3 -6 10 -10 10 -20 -1z"/>
<path d="M19092 33978 c2 -5 8 -9 13 -9 5 0 11 4 13 9 1 5 -4 9 -13 9 -9 0
-14 -4 -13 -9z"/>
<path d="M20160 33950 c0 -5 18 -10 40 -10 22 0 40 5 40 10 0 6 -18 10 -40 10
-22 0 -40 -4 -40 -10z"/>
<path d="M19938 33943 c12 -2 32 -2 45 0 12 2 2 4 -23 4 -25 0 -35 -2 -22 -4z"/>
<path d="M19187 33918 c19 -22 27 -23 20 -4 -4 10 2 16 16 19 12 3 5 4 -15 3
-34 -1 -35 -2 -21 -18z"/>
<path d="M19244 33905 c-16 -13 -17 -14 -1 -9 11 4 17 2 15 -6 -2 -7 4 -15 12
-17 12 -4 12 -3 1 5 -11 8 -11 10 0 15 11 4 11 6 1 6 -7 1 -10 6 -7 11 9 14 2
12 -21 -5z"/>
<path d="M20418 33893 c12 -2 32 -2 45 0 12 2 2 4 -23 4 -25 0 -35 -2 -22 -4z"/>
<path d="M20338 33863 c12 -2 32 -2 45 0 12 2 2 4 -23 4 -25 0 -35 -2 -22 -4z"/>
<path d="M22655 33844 c-107 -44 -220 -81 -234 -76 -9 3 -11 0 -6 -8 6 -10 4
-12 -8 -7 -9 3 -19 2 -22 -3 -4 -7 -13 -6 -25 0 -28 15 -37 12 -14 -5 23 -17
11 -20 -19 -3 -20 10 -21 10 -8 -5 11 -14 11 -17 0 -18 -45 -4 -57 -7 -78 -18
-12 -7 -25 -10 -28 -7 -4 3 -11 2 -17 -3 -10 -8 -115 -41 -130 -41 -3 0 -3 7
0 15 4 8 1 15 -6 15 -6 0 -8 -4 -5 -10 3 -5 1 -10 -5 -10 -6 0 -9 -4 -6 -9 3
-5 -7 -11 -22 -14 -26 -4 -246 -52 -288 -62 -12 -3 -29 3 -42 15 -12 12 -23
16 -27 10 -3 -6 -1 -10 5 -10 6 0 8 -5 4 -12 -5 -7 -3 -8 6 -3 9 5 11 4 6 -3
-4 -7 -18 -12 -32 -12 -14 0 -23 4 -20 9 3 5 -8 11 -25 15 -41 8 -61 6 -30 -3
36 -10 40 -33 4 -28 -15 2 -33 0 -39 -5 -7 -5 -48 -10 -92 -11 -44 -1 -78 -6
-75 -11 3 -4 -22 -6 -56 -3 -38 4 -59 2 -56 -3 4 -6 2 -10 -3 -10 -6 0 -12 7
-16 15 -3 10 -17 14 -38 14 -30 -2 -31 -2 -5 -6 15 -2 27 -9 27 -14 0 -9 -56
-4 -95 9 -33 10 -299 2 -310 -10 -7 -8 -6 -9 3 -4 6 4 12 2 12 -3 0 -14 -67
-14 -75 -1 -3 6 -15 10 -26 10 -11 0 -18 4 -15 9 4 5 -26 7 -71 4 -43 -2 -85
-5 -93 -5 -18 0 -145 -291 -260 -598 -85 -224 -339 -986 -449 -1347 -361
-1177 -457 -1902 -317 -2383 109 -375 362 -580 714 -580 222 0 439 50 1096
251 169 52 262 76 266 69 4 -6 12 -48 19 -93 45 -296 237 -1291 397 -2047 396
-1878 501 -2335 743 -3250 358 -1348 448 -1938 551 -3590 44 -715 62 -932 106
-1285 153 -1241 578 -2580 1191 -3750 l68 -130 85 3 c47 1 225 21 395 43 171
22 348 44 395 50 47 5 95 12 106 14 24 5 22 -55 44 1150 24 1264 62 2951 95
4155 37 1344 98 3309 115 3710 6 129 17 433 25 675 31 899 102 2737 111 2865
4 52 9 88 12 80 43 -133 175 -501 248 -698 169 -450 311 -800 659 -1622 530
-1250 757 -1916 950 -2779 145 -654 223 -1219 300 -2186 55 -691 117 -1072
250 -1534 278 -968 746 -1860 1420 -2706 235 -296 606 -702 844 -923 l121
-114 123 32 c67 18 285 77 485 131 200 55 365 99 366 99 2 0 -52 219 -120 487
-516 2055 -950 4134 -1298 6208 -135 803 -279 1747 -350 2290 -14 105 -50 379
-80 610 -171 1302 -329 2815 -426 4074 -11 146 -19 265 -17 266 1 1 32 21 69
44 80 50 187 161 225 234 l28 52 0 210 c0 203 -5 319 -26 550 -5 61 -11 139
-14 175 -15 222 -15 226 -44 243 -14 9 -21 17 -14 17 6 0 15 -4 18 -10 14 -23
21 -7 18 43 -7 104 -14 138 -26 130 -7 -4 -7 -1 1 10 11 13 11 39 2 139 -12
133 -16 189 -18 256 -2 41 -3 42 -29 36 -21 -4 -24 -3 -13 5 13 9 13 12 -3 28
-15 16 -19 16 -27 3 -9 -13 -10 -13 -9 0 1 24 17 67 18 49 1 -8 14 -27 29 -42
28 -27 29 -27 27 -6 -1 13 -9 23 -19 25 -10 1 -21 6 -24 10 -4 4 1 4 11 1 11
-4 20 -1 24 9 8 22 -4 29 -24 13 -15 -12 -16 -12 -10 4 4 10 7 20 7 23 0 2 6
1 14 -2 12 -5 14 6 10 58 -3 35 -5 92 -5 128 0 40 -6 74 -15 88 -8 12 -12 28
-8 35 4 7 -2 4 -13 -6 -20 -17 -24 -60 -9 -85 3 -6 2 -13 -3 -17 -16 -9 -8
-41 9 -41 9 0 17 6 17 12 0 7 -6 10 -14 7 -7 -3 -13 -1 -13 4 0 17 13 23 27
12 16 -14 17 -49 1 -50 -40 -3 -114 4 -118 11 -3 4 -40 11 -82 15 -43 4 -78
11 -78 16 0 5 -18 9 -40 9 -29 0 -40 4 -40 15 0 12 -16 15 -80 15 -60 0 -80 3
-80 14 0 9 -32 17 -120 26 -88 9 -120 17 -120 26 0 10 -13 14 -40 14 -22 0
-40 4 -40 9 0 5 -36 12 -80 16 -44 4 -80 11 -80 16 0 5 -36 9 -80 9 -64 0 -80
3 -80 15 0 11 -11 15 -40 15 -22 0 -40 4 -40 9 0 5 -36 12 -80 16 -44 4 -80
11 -80 16 0 5 -36 9 -80 9 -64 0 -80 3 -80 15 0 11 -11 15 -40 15 -22 0 -40 4
-40 9 0 5 -36 12 -80 16 -44 4 -80 11 -80 16 0 5 -18 9 -40 9 -22 0 -40 4 -40
9 0 5 -36 12 -80 16 -44 4 -80 11 -80 15 0 4 -36 11 -80 15 -44 4 -80 11 -80
16 0 5 -18 9 -40 9 -29 0 -40 4 -40 15 0 12 -16 15 -80 15 -60 0 -80 3 -80 14
0 9 -32 17 -120 26 -88 9 -120 17 -120 26 0 10 -13 14 -40 14 -22 0 -40 4 -40
9 0 5 -36 12 -80 16 -44 4 -80 11 -80 16 0 5 -36 9 -80 9 -64 0 -80 3 -80 15
0 11 -11 15 -40 15 -22 0 -40 4 -40 9 0 5 -36 12 -80 16 -44 4 -80 11 -80 16
0 5 -36 9 -80 9 -64 0 -80 3 -80 15 0 11 -11 15 -40 15 -22 0 -40 4 -40 9 0 5
-36 12 -80 16 -44 4 -80 11 -80 16 0 5 -18 9 -40 9 -22 0 -40 4 -40 9 0 5 -36
12 -80 16 -44 4 -80 11 -80 15 0 4 -36 11 -80 15 -44 4 -80 11 -80 16 0 5 -18
9 -40 9 -29 0 -40 4 -40 15 0 12 -16 15 -80 15 -60 0 -80 3 -80 14 0 9 -32 17
-120 26 -88 9 -120 17 -120 26 0 10 -13 14 -40 14 -22 0 -40 4 -40 9 0 5 -36
12 -80 16 -44 4 -80 11 -80 16 0 5 -36 9 -80 9 -64 0 -80 3 -80 15 0 11 -11
15 -40 15 -22 0 -40 4 -40 9 0 5 -36 12 -80 16 -44 4 -80 11 -80 16 0 5 -36 9
-80 9 -64 0 -80 3 -80 15 0 11 -11 15 -40 15 -22 0 -40 4 -40 9 0 5 -36 12
-80 16 -44 4 -80 11 -80 16 0 5 -18 9 -40 9 -22 0 -40 4 -40 9 0 5 -36 12 -80
16 -44 4 -80 11 -80 15 0 4 -36 11 -80 15 -44 4 -80 11 -80 16 0 5 -18 9 -40
9 -29 0 -40 4 -40 15 0 12 -16 15 -80 15 -60 0 -80 3 -80 14 0 9 -32 17 -120
26 -88 9 -120 17 -120 26 0 10 -13 14 -40 14 -22 0 -40 5 -40 10 0 14 -73 13
-87 -1 -8 -8 -13 -7 -18 1 -4 6 -2 17 4 23 9 9 11 7 5 -8 -6 -16 -4 -18 6 -8
10 10 11 15 1 27 -9 11 -10 20 -2 35 6 11 11 26 11 33 -1 7 -7 -2 -15 -21 -8
-18 -12 -37 -9 -42 3 -5 0 -9 -5 -9 -6 0 -11 5 -11 10 0 6 -8 10 -17 10 -14 0
-15 2 -5 9 11 7 10 9 -3 15 -9 3 -13 10 -10 16 3 5 2 10 -4 10 -6 0 -8 7 -5
15 4 8 2 15 -4 15 -5 0 -12 11 -14 25 -6 31 0 32 12 3 8 -20 9 -19 7 10 -1 27
-5 32 -19 29 -10 -3 -16 -1 -13 3 3 5 1 11 -5 15 -6 4 -8 10 -5 15 3 5 1 11
-5 15 -15 9 -2 25 15 18 10 -3 15 2 15 17 0 12 -4 18 -10 15 -6 -4 -7 -11 -4
-17 4 -6 -1 -6 -14 1 -21 11 -37 41 -22 41 6 0 10 5 10 11 0 5 -4 8 -9 4 -5
-3 -12 -1 -16 5 -4 6 6 11 22 11 22 1 24 3 6 6 -12 2 -27 12 -35 21 -9 11 -10
14 0 8 16 -10 15 0 -4 29 -9 14 -13 25 -10 25 4 0 0 10 -8 22 -19 27 -21 52
-3 43 6 -4 4 0 -5 8 -18 14 -26 43 -9 33 5 -4 7 3 4 14 -3 11 -10 17 -16 13
-6 -4 -8 0 -4 10 3 9 1 17 -4 19 -6 2 -12 24 -14 48 -2 25 -4 47 -5 50 -1 3
-1 13 0 24 1 12 -2 16 -11 11 -9 -6 -10 -1 -5 19 3 14 2 26 -2 26 -5 0 -15 34
-21 75 -8 45 -17 75 -24 75 -7 -1 -39 -12 -72 -26z m-1531 -335 c-25 -10 -270
-11 -260 -1 8 8 243 20 265 13 11 -3 10 -6 -5 -12z m-446 4 c-10 -2 -26 -2
-35 0 -10 3 -2 5 17 5 19 0 27 -2 18 -5z m2399 -728 c0 -8 -4 -12 -9 -9 -5 3
-6 10 -3 15 9 13 12 11 12 -6z m24 -29 c-11 -27 -24 -37 -16 -11 3 8 7 22 10
31 3 9 8 15 11 12 2 -3 0 -17 -5 -32z m48 -136 c0 -10 -3 -8 -9 5 -12 27 -12
43 0 25 5 -8 9 -22 9 -30z m40 17 c0 -9 -2 -8 -6 1 -2 6 -10 9 -15 6 -7 -4 -8
-2 -4 5 9 13 26 5 25 -12z m75 -158 c-3 -5 -10 -7 -15 -4 -5 3 -6 -1 -3 -9 6
-16 -7 -22 -19 -10 -10 10 16 42 30 37 7 -3 10 -9 7 -14z m16 -28 c0 -26 -26
-47 -33 -26 -4 8 -1 14 6 12 7 -1 11 6 11 16 -1 9 2 17 7 17 5 0 9 -8 9 -19z
m223 -38 c-13 -2 -33 -2 -45 0 -13 2 -3 4 22 4 25 0 35 -2 23 -4z m-66 -39
c-3 -3 -12 -4 -19 -1 -8 3 -5 6 6 6 11 1 17 -2 13 -5z m76 -11 c-7 -2 -19 -2
-25 0 -7 3 -2 5 12 5 14 0 19 -2 13 -5z m-176 -9 c-3 -3 -12 -4 -19 -1 -8 3
-5 6 6 6 11 1 17 -2 13 -5z m411 -41 c-10 -2 -26 -2 -35 0 -10 3 -2 5 17 5 19
0 27 -2 18 -5z m89 -19 c-3 -3 -12 -4 -19 -1 -8 3 -5 6 6 6 11 1 17 -2 13 -5z
m322 -60 c8 -7 -74 -2 -99 6 -16 5 -2 6 35 3 33 -3 62 -7 64 -9z m69 -21 c-10
-2 -26 -2 -35 0 -10 3 -2 5 17 5 19 0 27 -2 18 -5z m85 -20 c-7 -2 -19 -2 -25
0 -7 3 -2 5 12 5 14 0 19 -2 13 -5z m155 -30 c-10 -2 -26 -2 -35 0 -10 3 -2 5
17 5 19 0 27 -2 18 -5z m85 -20 c-7 -2 -19 -2 -25 0 -7 3 -2 5 12 5 14 0 19
-2 13 -5z m84 -19 c-3 -3 -12 -4 -19 -1 -8 3 -5 6 6 6 11 1 17 -2 13 -5z m71
-11 c-10 -2 -26 -2 -35 0 -10 3 -2 5 17 5 19 0 27 -2 18 -5z m92 -23 c0 -13
-20 -13 -40 0 -12 8 -9 10 13 10 15 0 27 -4 27 -10z m223 3 c-13 -2 -33 -2
-45 0 -13 2 -3 4 22 4 25 0 35 -2 23 -4z m-64 -27 c-2 -2 -22 -6 -44 -9 -27
-4 -35 -3 -25 3 14 9 79 15 69 6z m159 -38 c2 -4 21 -8 43 -8 21 0 39 -4 39
-8 0 -9 -28 -5 -140 18 -75 16 -77 22 -4 14 32 -4 61 -11 62 -16z m305 -15
c-13 -2 -33 -2 -45 0 -13 2 -3 4 22 4 25 0 35 -2 23 -4z m-150 -20 c-7 -2 -19
-2 -25 0 -7 3 -2 5 12 5 14 0 19 -2 13 -5z m84 -19 c-3 -3 -12 -4 -19 -1 -8 3
-5 6 6 6 11 1 17 -2 13 -5z m76 -11 c-7 -2 -19 -2 -25 0 -7 3 -2 5 12 5 14 0
19 -2 13 -5z m-1716 -50 c-4 -3 -1 -13 6 -22 11 -14 10 -14 -5 -2 -16 12 -16
31 -1 31 4 0 3 -3 0 -7z m1963 -3 c0 -13 -20 -13 -40 0 -12 8 -9 10 13 10 15
0 27 -4 27 -10z m-1932 -25 c-3 -3 -9 2 -12 12 -6 14 -5 15 5 6 7 -7 10 -15 7
-18z m2005 8 c-7 -2 -19 -2 -25 0 -7 3 -2 5 12 5 14 0 19 -2 13 -5z m326 -59
c8 -7 -74 -2 -99 6 -16 5 -2 6 35 3 33 -3 62 -7 64 -9z m81 -24 c0 -5 -6 -10
-14 -10 -8 0 -18 5 -21 10 -3 6 3 10 14 10 12 0 21 -4 21 -10z m73 -17 c-7 -2
-19 -2 -25 0 -7 3 -2 5 12 5 14 0 19 -2 13 -5z m164 -39 c-3 -3 -12 -4 -19 -1
-8 3 -5 6 6 6 11 1 17 -2 13 -5z m76 -11 c-7 -2 -19 -2 -25 0 -7 3 -2 5 12 5
14 0 19 -2 13 -5z m84 -19 c-3 -3 -12 -4 -19 -1 -8 3 -5 6 6 6 11 1 17 -2 13
-5z m83 -19 c0 -13 -4 -14 -22 -4 -34 17 -34 19 -5 19 18 0 27 -5 27 -15z
m-965 -15 c3 -6 -1 -7 -9 -4 -18 7 -21 14 -7 14 6 0 13 -4 16 -10z m1268 3
c-13 -2 -33 -2 -45 0 -13 2 -3 4 22 4 25 0 35 -2 23 -4z m2778 -5 c0 -7 2 -23
3 -35 3 -23 -4 -29 -17 -16 -4 3 -1 13 6 21 10 13 9 15 -5 10 -14 -6 -17 3 -9
30 3 8 21 0 22 -10z m-2844 -34 c-3 -3 -12 -4 -19 -1 -8 3 -5 6 6 6 11 1 17
-2 13 -5z m134 -14 c16 0 29 -4 29 -9 0 -10 -57 -4 -100 11 -21 7 -19 7 9 3
18 -3 46 -5 62 -5z m-1671 -30 c-8 -5 -19 -10 -25 -10 -5 0 -3 5 5 10 8 5 20
10 25 10 6 0 3 -5 -5 -10z m1780 0 c0 -5 -9 -10 -19 -10 -11 0 -23 5 -26 10
-4 6 5 10 19 10 14 0 26 -4 26 -10z m73 -17 c-7 -2 -19 -2 -25 0 -7 3 -2 5 12
5 14 0 19 -2 13 -5z m84 -19 c-3 -3 -12 -4 -19 -1 -8 3 -5 6 6 6 11 1 17 -2
13 -5z m80 -20 c-3 -3 -12 -4 -19 -1 -8 3 -5 6 6 6 11 1 17 -2 13 -5z m2368
-15 c0 -8 5 -21 10 -29 8 -13 7 -13 -9 -1 -16 13 -17 13 -14 -5 1 -10 9 -24
17 -30 11 -9 12 -12 1 -19 -9 -5 -11 -4 -6 3 4 7 3 12 -3 12 -12 0 -24 -37
-16 -50 3 -5 2 -10 -4 -10 -17 0 -23 20 -11 35 10 12 10 18 0 30 -8 9 -8 15
-2 15 16 0 20 33 5 51 -11 14 -10 15 9 14 13 -1 23 -8 23 -16z m-2159 -27
c-21 -2 -42 0 -47 5 -4 4 13 6 39 3 l47 -5 -39 -3z m2121 -4 c-3 -8 -6 -5 -6
6 -1 11 2 17 5 13 3 -3 4 -12 1 -19z m-2532 -6 c-3 -3 -11 0 -18 7 -9 10 -8
11 6 5 10 -3 15 -9 12 -12z m518 -9 c-7 -2 -19 -2 -25 0 -7 3 -2 5 12 5 14 0
19 -2 13 -5z m326 -59 c8 -7 -74 -2 -99 6 -16 5 -2 6 35 3 33 -3 62 -7 64 -9z
m154 -41 c-7 -2 -19 -2 -25 0 -7 3 -2 5 12 5 14 0 19 -2 13 -5z m240 -50 c-7
-2 -19 -2 -25 0 -7 3 -2 5 12 5 14 0 19 -2 13 -5z m135 -23 c17 0 32 -4 32 -9
0 -11 -63 -3 -95 11 -17 7 -16 8 5 3 14 -2 40 -5 58 -5z m1182 6 c0 -2 -8 -10
-17 -17 -16 -13 -17 -12 -4 4 13 16 21 21 21 13z m-1070 -36 c0 -13 -20 -13
-40 0 -12 8 -9 10 13 10 15 0 27 -4 27 -10z m223 3 c-13 -2 -33 -2 -45 0 -13
2 -3 4 22 4 25 0 35 -2 23 -4z m68 -53 c16 0 29 -4 29 -9 0 -10 -57 -4 -100
11 -21 7 -19 7 9 3 18 -3 46 -5 62 -5z m182 -47 c-7 -2 -19 -2 -25 0 -7 3 -2
5 12 5 14 0 19 -2 13 -5z m80 -20 c-7 -2 -19 -2 -25 0 -7 3 -2 5 12 5 14 0 19
-2 13 -5z m326 -59 c8 -7 -74 -2 -99 6 -16 5 -2 6 35 3 33 -3 62 -7 64 -9z
m74 -21 c-7 -2 -19 -2 -25 0 -7 3 -2 5 12 5 14 0 19 -2 13 -5z m-1708 -31 c-3
-3 -11 0 -18 7 -9 10 -8 11 6 5 10 -3 15 -9 12 -12z m1788 11 c-7 -2 -19 -2
-25 0 -7 3 -2 5 12 5 14 0 19 -2 13 -5z m-1686 -29 c0 -7 -6 -10 -14 -7 -7 3
-13 8 -13 12 0 4 6 8 13 8 8 0 14 -6 14 -13z m-66 -21 c13 -16 12 -17 -3 -4
-17 13 -22 21 -14 21 2 0 10 -8 17 -17z m1866 -296 c0 -8 -6 -14 -14 -14 -9 0
-10 4 -2 14 6 7 12 13 14 13 1 0 2 -6 2 -13z"/>
<path d="M19315 33850 c3 -5 8 -10 11 -10 2 0 4 5 4 10 0 6 -5 10 -11 10 -5 0
-7 -4 -4 -10z"/>
<path d="M19400 33851 c0 -8 -7 -11 -17 -6 -15 5 -16 4 -5 -6 9 -10 15 -10 24
-1 6 6 9 15 5 19 -4 3 -7 1 -7 -6z"/>
<path d="M19426 33836 c4 -12 2 -16 -5 -12 -7 5 -8 1 -4 -10 5 -15 7 -14 16 2
14 27 14 27 27 19 9 -5 9 -9 1 -14 -6 -4 5 -7 24 -7 19 0 35 4 35 9 0 4 -3 6
-7 4 -5 -3 -19 0 -33 5 -18 7 -21 11 -11 17 8 5 1 8 -18 7 -25 -1 -30 -4 -25
-20z"/>
<path d="M19480 33803 c0 -15 31 -46 38 -38 3 3 -4 15 -16 28 -12 12 -22 16
-22 10z"/>
<path d="M20898 33793 c12 -2 32 -2 45 0 12 2 2 4 -23 4 -25 0 -35 -2 -22 -4z"/>
<path d="M20738 33783 c12 -2 32 -2 45 0 12 2 2 4 -23 4 -25 0 -35 -2 -22 -4z"/>
<path d="M19644 33773 c4 -7 2 -14 -3 -14 -6 -1 -16 -2 -23 -3 -6 0 -12 -7
-14 -14 -1 -7 0 -8 3 -2 3 8 11 6 22 -4 13 -12 19 -12 33 -2 17 12 16 14 -4
32 -12 10 -18 13 -14 7z m9 -34 c-8 -8 -13 -7 -18 2 -5 8 -4 10 3 5 7 -4 12
-2 12 5 0 7 3 9 7 6 4 -4 2 -12 -4 -18z"/>
<path d="M22277 33752 c-15 -16 -15 -18 3 -18 10 0 16 4 13 9 -3 5 1 13 8 18
8 5 9 9 3 9 -6 0 -18 -8 -27 -18z"/>
<path d="M21120 33710 c0 -5 18 -10 40 -10 22 0 40 5 40 10 0 6 -18 10 -40 10
-22 0 -40 -4 -40 -10z"/>
<path d="M21298 33713 c12 -2 32 -2 45 0 12 2 2 4 -23 4 -25 0 -35 -2 -22 -4z"/>
<path d="M19710 33696 c0 -2 7 -7 16 -10 8 -3 12 -2 9 4 -6 10 -25 14 -25 6z"/>
<path d="M19863 33679 c1 -27 24 -31 24 -4 0 8 -4 12 -8 9 -4 -2 -10 2 -12 8
-3 7 -5 1 -4 -13z"/>
<path d="M19920 33692 c0 -7 -5 -10 -12 -6 -6 4 -8 3 -4 -4 3 -6 -1 -18 -10
-26 -8 -9 -11 -16 -5 -16 5 0 16 7 24 15 12 11 16 12 20 2 2 -7 8 -4 15 10 8
14 9 24 2 28 -5 3 -10 0 -10 -7 0 -9 -3 -9 -10 2 -7 11 -10 11 -10 2z"/>
<path d="M19805 33681 c-3 -6 3 -15 14 -20 15 -8 20 -7 25 5 9 24 7 29 -6 16
-15 -15 -32 -16 -23 -2 3 6 4 10 1 10 -3 0 -7 -4 -11 -9z"/>
<path d="M19963 33648 c2 -10 7 -21 12 -25 4 -5 5 -2 1 5 -4 6 -3 12 3 12 5 0
11 -8 14 -17 2 -10 4 -4 4 12 0 23 -5 31 -18 31 -12 0 -17 -7 -16 -18z"/>
<path d="M21990 33660 c-9 -6 -10 -10 -3 -10 6 0 15 5 18 10 8 12 4 12 -15 0z"/>
<path d="M21698 33633 c12 -2 32 -2 45 0 12 2 2 4 -23 4 -25 0 -35 -2 -22 -4z"/>
<path d="M20010 33616 c0 -2 7 -6 15 -10 8 -3 15 -1 15 4 0 6 -7 10 -15 10 -8
0 -15 -2 -15 -4z"/>
<path d="M20066 33606 c6 -15 44 -18 44 -4 0 13 -18 18 -23 6 -4 -10 -6 -10
-6 0 -1 6 -5 12 -11 12 -5 0 -7 -6 -4 -14z"/>
<path d="M20200 33610 c-18 -12 -2 -12 25 0 13 6 15 9 5 9 -8 0 -22 -4 -30 -9z"/>
<path d="M20251 33607 c-8 -10 -7 -14 4 -14 8 0 12 4 9 8 -2 4 2 10 8 12 8 4
9 6 2 6 -6 1 -17 -5 -23 -12z"/>
<path d="M20310 33612 c0 -5 14 -7 30 -4 17 2 30 6 30 8 0 2 -13 4 -30 4 -16
0 -30 -4 -30 -8z"/>
<path d="M21590 33610 c-9 -6 -10 -10 -3 -10 6 0 15 5 18 10 8 12 4 12 -15 0z"/>
<path d="M21734 33605 c11 -8 25 -15 30 -14 6 0 5 3 -2 6 -6 2 -10 9 -6 14 3
5 -5 9 -18 9 -22 -1 -22 -1 -4 -15z"/>
<path d="M20133 33593 c0 -7 3 -11 5 -8 3 3 11 0 17 -5 9 -7 14 -6 18 4 4 9
-2 15 -17 18 -14 3 -23 0 -23 -9z"/>
<path d="M21531 33601 c-7 -5 -11 -15 -9 -22 3 -10 8 -7 17 9 13 24 12 26 -8
13z"/>
<path d="M21620 33600 c0 -5 5 -10 10 -10 6 0 10 5 10 10 0 6 -4 10 -10 10 -5
0 -10 -4 -10 -10z"/>
<path d="M20305 33580 c-3 -6 1 -7 9 -4 18 7 21 14 7 14 -6 0 -13 -4 -16 -10z"/>
<path d="M20220 33569 c0 -5 5 -7 10 -4 6 3 10 8 10 11 0 2 -4 4 -10 4 -5 0
-10 -5 -10 -11z"/>
<path d="M20253 33566 c-3 -6 -3 -8 2 -4 4 4 16 3 26 -3 14 -7 17 -6 13 4 -6
16 -32 18 -41 3z"/>
<path d="M20367 33574 c-8 -8 3 -34 15 -34 7 0 6 5 -1 13 -6 8 -8 17 -4 20 3
4 4 7 1 7 -2 0 -7 -3 -11 -6z"/>
<path d="M20314 33558 c-4 -7 -4 -10 1 -6 4 4 15 2 24 -5 14 -11 14 -10 2 6
-16 20 -18 21 -27 5z"/>
<path d="M23040 33310 c0 -5 18 -10 40 -10 22 0 40 5 40 10 0 6 -18 10 -40 10
-22 0 -40 -4 -40 -10z"/>
<path d="M23218 33313 c12 -2 32 -2 45 0 12 2 2 4 -23 4 -25 0 -35 -2 -22 -4z"/>
<path d="M22944 33270 c0 -13 4 -16 10 -10 7 7 7 13 0 20 -6 6 -10 3 -10 -10z"/>
<path d="M22921 33264 c0 -11 3 -14 6 -6 3 7 2 16 -1 19 -3 4 -6 -2 -5 -13z"/>
<path d="M23618 33233 c12 -2 32 -2 45 0 12 2 2 4 -23 4 -25 0 -35 -2 -22 -4z"/>
<path d="M22930 33171 c0 -5 5 -13 10 -16 6 -3 10 -2 10 4 0 5 -4 13 -10 16
-5 3 -10 2 -10 -4z"/>
<path d="M23858 33173 c12 -2 32 -2 45 0 12 2 2 4 -23 4 -25 0 -35 -2 -22 -4z"/>
<path d="M24000 33150 c0 -5 18 -10 40 -10 22 0 40 5 40 10 0 6 -18 10 -40 10
-22 0 -40 -4 -40 -10z"/>
<path d="M23778 33143 c12 -2 32 -2 45 0 12 2 2 4 -23 4 -25 0 -35 -2 -22 -4z"/>
<path d="M24258 33093 c12 -2 32 -2 45 0 12 2 2 4 -23 4 -25 0 -35 -2 -22 -4z"/>
<path d="M24178 33063 c12 -2 32 -2 45 0 12 2 2 4 -23 4 -25 0 -35 -2 -22 -4z"/>
<path d="M23006 33045 c-9 -26 -7 -32 5 -12 6 10 9 21 6 23 -2 3 -7 -2 -11
-11z"/>
<path d="M24738 32993 c12 -2 32 -2 45 0 12 2 2 4 -23 4 -25 0 -35 -2 -22 -4z"/>
<path d="M24578 32983 c12 -2 32 -2 45 0 12 2 2 4 -23 4 -25 0 -35 -2 -22 -4z"/>
<path d="M24960 32910 c0 -5 18 -10 40 -10 22 0 40 5 40 10 0 6 -18 10 -40 10
-22 0 -40 -4 -40 -10z"/>
<path d="M25138 32913 c12 -2 32 -2 45 0 12 2 2 4 -23 4 -25 0 -35 -2 -22 -4z"/>
<path d="M25538 32833 c12 -2 32 -2 45 0 12 2 2 4 -23 4 -25 0 -35 -2 -22 -4z"/>
<path d="M25298 32823 c12 -2 32 -2 45 0 12 2 2 4 -23 4 -25 0 -35 -2 -22 -4z"/>
<path d="M25778 32773 c12 -2 32 -2 45 0 12 2 2 4 -23 4 -25 0 -35 -2 -22 -4z"/>
<path d="M25920 32750 c0 -5 18 -10 40 -10 22 0 40 5 40 10 0 6 -18 10 -40 10
-22 0 -40 -4 -40 -10z"/>
<path d="M25698 32743 c12 -2 32 -2 45 0 12 2 2 4 -23 4 -25 0 -35 -2 -22 -4z"/>
<path d="M26178 32693 c12 -2 32 -2 45 0 12 2 2 4 -23 4 -25 0 -35 -2 -22 -4z"/>
<path d="M26098 32663 c12 -2 32 -2 45 0 12 2 2 4 -23 4 -25 0 -35 -2 -22 -4z"/>
<path d="M26658 32593 c12 -2 32 -2 45 0 12 2 2 4 -23 4 -25 0 -35 -2 -22 -4z"/>
<path d="M26498 32583 c12 -2 32 -2 45 0 12 2 2 4 -23 4 -25 0 -35 -2 -22 -4z"/>
<path d="M27058 32513 c12 -2 32 -2 45 0 12 2 2 4 -23 4 -25 0 -35 -2 -22 -4z"/>
<path d="M27458 32433 c12 -2 32 -2 45 0 12 2 2 4 -23 4 -25 0 -35 -2 -22 -4z"/>
<path d="M27218 32423 c12 -2 32 -2 45 0 12 2 2 4 -23 4 -25 0 -35 -2 -22 -4z"/>
<path d="M27698 32373 c12 -2 32 -2 45 0 12 2 2 4 -23 4 -25 0 -35 -2 -22 -4z"/>
<path d="M27840 32350 c0 -5 18 -10 40 -10 22 0 40 5 40 10 0 6 -18 10 -40 10
-22 0 -40 -4 -40 -10z"/>
<path d="M27618 32343 c12 -2 32 -2 45 0 12 2 2 4 -23 4 -25 0 -35 -2 -22 -4z"/>
<path d="M28018 32263 c12 -2 32 -2 45 0 12 2 2 4 -23 4 -25 0 -35 -2 -22 -4z"/>
<path d="M28578 32193 c12 -2 32 -2 45 0 12 2 2 4 -23 4 -25 0 -35 -2 -22 -4z"/>
<path d="M28418 32183 c12 -2 32 -2 45 0 12 2 2 4 -23 4 -25 0 -35 -2 -22 -4z"/>
<path d="M28978 32113 c12 -2 32 -2 45 0 12 2 2 4 -23 4 -25 0 -35 -2 -22 -4z"/>
<path d="M29697 32084 c-3 -3 -3 -12 0 -20 3 -8 -1 -22 -8 -32 -13 -15 -12
-16 3 -3 10 7 17 24 16 37 -3 27 -2 26 -11 18z"/>
<path d="M29378 32033 c12 -2 32 -2 45 0 12 2 2 4 -23 4 -25 0 -35 -2 -22 -4z"/>
<path d="M29138 32023 c12 -2 32 -2 45 0 12 2 2 4 -23 4 -25 0 -35 -2 -22 -4z"/>
<path d="M29693 31998 c1 -9 -16 -15 -48 -19 l-50 -6 47 -1 c37 -2 48 -6 53
-22 3 -11 11 -20 17 -20 6 0 3 11 -6 25 -15 23 -14 29 6 26 4 0 5 6 2 14 -7
18 -25 20 -21 3z"/>
<path d="M29538 31943 c12 -2 32 -2 45 0 12 2 2 4 -23 4 -25 0 -35 -2 -22 -4z"/>
<path d="M29706 31905 c-3 -8 -1 -15 4 -15 6 0 10 7 10 15 0 8 -2 15 -4 15 -2
0 -6 -7 -10 -15z"/>
<path d="M29684 31859 c1 -7 9 -13 18 -15 11 -1 15 3 11 13 -4 11 -8 12 -13 3
-6 -9 -9 -9 -13 -1 -4 8 -5 8 -3 0z"/>
<path d="M29696 31801 c-18 -7 -18 -8 -3 -14 9 -3 17 -2 17 4 0 6 5 7 12 3 7
-4 8 -3 4 4 -4 7 -8 12 -9 11 -1 0 -11 -4 -21 -8z"/>
<path d="M29708 31753 c7 -3 16 -2 19 1 4 3 -2 6 -13 5 -11 0 -14 -3 -6 -6z"/>
<path d="M31810 14773 c0 -5 9 -37 19 -72 l20 -63 -24 -22 c-70 -65 -220 -110
-345 -104 -115 7 -133 17 -166 94 -15 35 -31 64 -35 64 -12 0 -53 -58 -82
-115 -78 -155 -55 -382 45 -459 58 -44 110 -50 295 -37 204 15 515 15 648 1
55 -6 173 -22 262 -36 266 -40 417 -30 613 41 229 83 328 176 257 243 -39 37
-129 71 -649 248 -457 155 -524 176 -659 199 -158 26 -199 30 -199 18z"/>
<path d="M24896 14497 c-53 -69 -90 -225 -102 -425 -6 -101 -5 -109 17 -141
13 -19 47 -47 75 -62 96 -54 228 -78 679 -124 138 -14 390 -41 560 -61 363
-42 543 -48 592 -21 52 28 66 58 61 126 -10 134 -130 293 -272 361 -75 35
-337 125 -581 199 -122 37 -426 121 -437 121 -4 0 -5 -26 -2 -59 l7 -59 -48
-28 c-110 -64 -294 -85 -405 -47 l-55 19 -26 112 c-14 62 -29 115 -32 118 -3
3 -17 -10 -31 -29z"/>
</g>
</svg>
